<svg height='100px' width='100px'  fill="#ffffff" xmlns="http://www.w3.org/2000/svg" xmlns:xlink="http://www.w3.org/1999/xlink" viewBox="0 0 24 24" version="1.1" x="0px" y="0px"><title>icon/train-tracks</title><desc>Created with Sketch.</desc><g stroke="none" stroke-width="1" fill="none" fill-rule="evenodd"><path d="M9.85249378,3 L13.1475062,3 L13.0024814,1.54975186 C12.9750042,1.27497993 13.1754762,1.0299586 13.4502481,1.0024814 C13.7250201,0.975004212 13.9700414,1.17547621 13.9975186,1.45024814 L14.1524938,3 L15.5,3 C15.7761424,3 16,3.22385763 16,3.5 C16,3.77614237 15.7761424,4 15.5,4 L14.2524938,4 L14.5524938,7 L16,7 C16.2761424,7 16.5,7.22385763 16.5,7.5 C16.5,7.77614237 16.2761424,8 16,8 L14.6524938,8 L14.9524938,11 L16.5,11 C16.7761424,11 17,11.2238576 17,11.5 C17,11.7761424 16.7761424,12 16.5,12 L15.0524938,12 L15.3524938,15 L17,15 C17.2761424,15 17.5,15.2238576 17.5,15.5 C17.5,15.7761424 17.2761424,16 17,16 L15.4524938,16 L15.7524938,19 L17.5,19 C17.7761424,19 18,19.2238576 18,19.5 C18,19.7761424 17.7761424,20 17.5,20 L15.8524938,20 L15.9975186,21.4502481 C16.0249958,21.7250201 15.8245238,21.9700414 15.5497519,21.9975186 C15.2749799,22.0249958 15.0299586,21.8245238 15.0024814,21.5497519 L14.8475062,20 L8.15249378,20 L7.9975186,21.5497519 C7.9700414,21.8245238 7.72502007,22.0249958 7.45024814,21.9975186 C7.17547621,21.9700414 6.97500421,21.7250201 7.0024814,21.4502481 L7.14750622,20 L5.5,20 C5.22385763,20 5,19.7761424 5,19.5 C5,19.2238576 5.22385763,19 5.5,19 L7.24750622,19 L7.54750622,16 L6,16 C5.72385763,16 5.5,15.7761424 5.5,15.5 C5.5,15.2238576 5.72385763,15 6,15 L7.64750622,15 L7.94750622,12 L6.5,12 C6.22385763,12 6,11.7761424 6,11.5 C6,11.2238576 6.22385763,11 6.5,11 L8.04750622,11 L8.34750622,8 L7,8 C6.72385763,8 6.5,7.77614237 6.5,7.5 C6.5,7.22385763 6.72385763,7 7,7 L8.44750622,7 L8.74750622,4 L7.5,4 C7.22385763,4 7,3.77614237 7,3.5 C7,3.22385763 7.22385763,3 7.5,3 L8.84750622,3 L9.0024814,1.45024814 C9.0299586,1.17547621 9.27497993,0.975004212 9.54975186,1.0024814 C9.82452379,1.0299586 10.0249958,1.27497993 9.9975186,1.54975186 L9.85249378,3 Z M9.75249378,4 L9.45249378,7 L13.5475062,7 L13.2475062,4 L9.75249378,4 Z M9.35249378,8 L9.05249378,11 L13.9475062,11 L13.6475062,8 L9.35249378,8 L9.35249378,8 Z M8.95249378,12 L8.65249378,15 L14.3475062,15 L14.0475062,12 L8.95249378,12 L8.95249378,12 Z M8.55249378,16 L8.25249378,19 L14.7475062,19 L14.4475062,16 L8.55249378,16 Z" fill="#ffffff" fill-rule="nonzero"></path></g></svg>